<svg xmlns="http://www.w3.org/2000/svg" width="16" height="14" viewBox="0 0 16 16">
    <path d="m15.918 10.875-2.642 2.73a.613.613 0 0 1-.448.188H.307a.315.315 0 0 1-.169-.048.298.298 0 0 1-.113-.13.286.286 0 0 1 .057-.32l2.644-2.73a.614.614 0 0 1 .447-.187h12.52c.06 0 .119.017.168.048a.3.3 0 0 1 .114.13.286.286 0 0 1-.057.319Zm-2.642-5.498a.614.614 0 0 0-.448-.188H.307a.315.315 0 0 0-.169.048.299.299 0 0 0-.113.13.286.286 0 0 0 .057.319l2.644 2.73a.614.614 0 0 0 .447.188h12.52c.06 0 .119-.017.168-.048a.3.3 0 0 0 .114-.13.286.286 0 0 0-.057-.319l-2.642-2.73ZM.306 3.415h12.522a.633.633 0 0 0 .448-.187l2.642-2.73a.286.286 0 0 0 .057-.32.3.3 0 0 0-.114-.13.315.315 0 0 0-.168-.048H3.173a.633.633 0 0 0-.447.188L.083 2.918a.292.292 0 0 0-.057.32.299.299 0 0 0 .113.129c.05.031.108.048.168.048Z"/>
</svg>
